<svg width="120" height="119" viewBox="0 0 120 119" fill="none" xmlns="http://www.w3.org/2000/svg">
<path d="M7.65018 54.2215C8.06017 49.961 8.97976 45.8494 10.3473 41.9484C7.97943 41.9264 5.59866 41.9585 3.20737 42.0416C2.28668 45.0666 1.60159 48.1942 1.17349 51.4031C3.3115 52.3819 5.46874 53.3283 7.65018 54.2215Z" fill="#1671D9"/>
<path d="M63.2869 56.3563C63.988 56.0832 64.6912 55.8111 65.3962 55.54C48.8662 46.0603 30.0547 42.1311 10.3473 41.9484C8.97976 45.8494 8.06017 49.961 7.65018 54.2215C24.1103 60.9611 41.9475 64.6686 63.2869 56.3563Z" fill="#1671D9"/>
<path d="M59.8682 111.77C88.8419 111.77 112.33 88.2826 112.33 59.3089C112.33 54.2291 111.608 49.3179 110.261 44.6723C94.1566 48.6958 78.2649 54.0815 63.2868 59.916C41.8527 68.2653 23.9521 64.4877 7.43115 57.6913C7.41488 58.2285 7.40668 58.7678 7.40668 59.3089C7.40668 88.2826 30.8945 111.77 59.8682 111.77Z" fill="#1671D9"/>
<path fill-rule="evenodd" clip-rule="evenodd" d="M119.086 59.309C119.086 92.0141 92.5734 118.527 59.8682 118.527C27.1631 118.527 0.65033 92.0141 0.65033 59.309C0.65033 57.7921 0.707367 56.2886 0.819397 54.8004C0.905353 53.6586 1.0237 52.5259 1.17349 51.4031C3.3115 52.3819 5.46874 53.3283 7.65018 54.2215C7.53989 55.3677 7.46649 56.5247 7.43115 57.6913C7.41488 58.2285 7.40668 58.7678 7.40668 59.3089C7.40668 88.2826 30.8945 111.77 59.8682 111.77C88.8419 111.77 112.33 88.2826 112.33 59.3089C112.33 54.2291 111.608 49.3179 110.261 44.6723C103.925 22.8212 83.7621 6.84741 59.8682 6.84741C36.9789 6.84741 17.5132 21.5063 10.3473 41.9484C7.97943 41.9264 5.59866 41.9585 3.20737 42.0416C10.5979 17.7595 33.1697 0.0910645 59.8682 0.0910645C86.9561 0.0910645 109.796 18.2786 116.843 43.1082C118.304 48.2572 119.086 53.6917 119.086 59.309Z" fill="#1671D9"/>
</svg>
